# xmcd
#
# Track frame offsets: 
#        150
#        9722
#        21366
#        34229
#        44692
#        56083
#        66040
#        76869
#        86713
#        96707
#        108295
#        118364
#        128733
#        142618
#        155922
#        169816
#        179829
#        191302
#        202421
#        212565
#        222447
#        234391
#        244854
#        255795
#        268133
#        279749
#        292199
#
# Disc length: 4060 seconds
#
# Revision: 0
# Processed by: cddbd v1.5.2PL0 Copyright (c) Steve Scherf et al.
# Submitted via: ExactAudioCopyFreeDBPlugin 1.0
#
DISCID=a80fda1b
DTITLE=Solomon Burke - Keep The Magic Working The Original 1955 - 1961
DTITLE=Atlantic, Singular and Apollo Sides, 2012
DYEAR=1900
DGENRE=Gospel, Rhythm and Blues, Soul
TTITLE0=Keep The Magic Working
TTITLE1=You Are My One Love
TTITLE2=Why Do Me That Way
TTITLE3=How Many Times
TTITLE4=Cry To Me
TTITLE5=A Picture Of You
TTITLE6=Walking In A Dream
TTITLE7=For You And You Alone
TTITLE8=They Always Say
TTITLE9=I'm In Love
TTITLE10=Don't Cry
TTITLE11=Leave My Kitten Alone
TTITLE12=To Thee
TTITLE13=This Is It
TTITLE14=Christmas Presents From Heaven
TTITLE15=I'm All Alone
TTITLE16=Mama, Mama Dear
TTITLE17=No Man Walks Alone
TTITLE18=Be Bop Grandma
TTITLE19=Friendship Ring
TTITLE20=You Can Run But You Can't Hide
TTITLE21=I Almost Lost My Mind
TTITLE22=I'm Not Afraid
TTITLE23=Just Out Of Reach
TTITLE24=This Little Ring
TTITLE25=I Need You Tonight
TTITLE26=My Heart Is A Chapel
EXTD=
EXTT0=
EXTT1=
EXTT2=
EXTT3=
EXTT4=
EXTT5=
EXTT6=
EXTT7=
EXTT8=
EXTT9=
EXTT10=
EXTT11=
EXTT12=
EXTT13=
EXTT14=
EXTT15=
EXTT16=
EXTT17=
EXTT18=
EXTT19=
EXTT20=
EXTT21=
EXTT22=
EXTT23=
EXTT24=
EXTT25=
EXTT26=
PLAYORDER=
